<?xml version="1.0" encoding="UTF-8" standalone="no"?>
<!-- Created with Inkscape (http://www.inkscape.org/) -->

<svg xmlns:dc="http://purl.org/dc/elements/1.1/" xmlns:cc="http://creativecommons.org/ns#" xmlns:rdf="http://www.w3.org/1999/02/22-rdf-syntax-ns#" xmlns:svg="http://www.w3.org/2000/svg" xmlns="http://www.w3.org/2000/svg" xmlns:sodipodi="http://sodipodi.sourceforge.net/DTD/sodipodi-0.dtd" xmlns:inkscape="http://www.inkscape.org/namespaces/inkscape" width="66.64579mm" height="27.367741mm" viewBox="0 0 236.1465 96.972309" id="svg4430" version="1.1" inkscape:version="0.91 r13725" sodipodi:docname="logo.svg">
    <defs id="defs4432">
        <inkscape:path-effect fuse_tolerance="0" vertical_pattern="false" prop_units="false" tang_offset="0" normal_offset="0" spacing="0" scale_y_rel="false" prop_scale="1" copytype="single_stretched" pattern="m -115.66247,-58.33631 1,0" is_visible="true" id="path-effect4962" effect="skeletal" />
    </defs>
    <sodipodi:namedview id="base" pagecolor="#ffffff" bordercolor="#666666" borderopacity="1.0" inkscape:pageopacity="0.0" inkscape:pageshadow="2" inkscape:zoom="1.979899" inkscape:cx="141.94565" inkscape:cy="34.366061" inkscape:document-units="px" inkscape:current-layer="layer1" showgrid="false" fit-margin-top="0" fit-margin-left="0" fit-margin-right="0" fit-margin-bottom="0" inkscape:window-width="1920" inkscape:window-height="1047" inkscape:window-x="1920" inkscape:window-y="0" inkscape:window-maximized="1" />
    <metadata id="metadata4435">
        <rdf:RDF>
            <cc:Work rdf:about="">
                <dc:format>image/svg+xml</dc:format>
                <dc:type rdf:resource="http://purl.org/dc/dcmitype/StillImage" />
                <dc:title></dc:title>
            </cc:Work>
        </rdf:RDF>
    </metadata>
    <g inkscape:label="Ebene 1" inkscape:groupmode="layer" id="layer1" transform="translate(1372.359,-115.30463)">
        <g id="g4982" transform="matrix(1.4328702,0,0,1.4328702,-1408.0599,-559.42878)">
            <g id="g4977">
                <path sodipodi:nodetypes="saccacs" inkscape:connector-curvature="0" inkscape:original-d="m 132.58252,471.14568 c -21.95992,1.87807 -50.05582,2.51037 -73.362328,10.73287 -12.028495,4.24364 -32.95623,19.44544 -32.95623,19.44544 9.28251,-3.9965 18.68372,-9.29881 27.65293,-9.84899 -0.71533,-0.19509 -10.12373,11.11381 -9.47018,17.80394 1.22456,12.53528 23.86485,29.29443 23.86485,29.29443 C 6.1717516,487.3114 164.01165,468.45778 132.58252,471.14568 Z" inkscape:path-effect="#path-effect4962" id="path4960" d="m 132.58252,471.14568 c -12.05648,1.0311 -24.15092,1.64022 -36.176194,2.98727 -12.609741,1.41252 -25.220363,3.52409 -37.186134,7.7456 -3.555495,1.25437 -6.917953,2.99929 -10.216859,4.82472 -3e-6,0 -5e-6,0 -8e-6,1e-5 -3.663923,2.02741 -7.236595,4.21644 -10.758898,6.48097 -3e-6,10e-6 -5e-6,10e-6 -8e-6,10e-6 -3.993477,2.71324 -7.986954,5.42647 -11.980431,8.13971 4.674468,-2.01254 9.23319,-4.29064 13.943926,-6.21685 3e-6,0 6e-6,0 9e-6,0 4.395131,-1.79715 8.969516,-3.3414 13.708969,-3.63212 -0.08219,-0.0224 -0.161049,0.0463 -0.231417,0.0943 -0.146336,0.0999 -0.278326,0.21924 -0.407689,0.3403 -0.440778,0.41249 -0.841984,0.86533 -1.234295,1.32416 -1.229963,1.43853 -2.345249,2.97324 -3.37501,4.56124 -2e-6,0 -6e-6,10e-6 -9e-6,10e-6 -1.204459,1.85741 -2.294305,3.79757 -3.118354,5.85223 -0.718583,1.7917 -1.291093,3.71042 -1.103406,5.6317 0.351402,3.59714 2.192728,6.88211 4.241419,9.85965 2.363966,3.43577 5.177002,6.54309 8.139892,9.47807 3.827838,3.3189 7.655677,6.63779 11.483515,9.95669 2e-5,2e-5 1.6e-5,10e-6 1.2e-5,10e-6 -3.353945,-2.76682 -6.527202,-5.78441 -9.173219,-9.23446 -3e-6,-10e-6 -7e-6,-10e-6 -1e-5,-2e-5 -1.970674,-2.56949 -3.651156,-5.40002 -4.616953,-8.49083 -0.781354,-2.50054 -1.051417,-5.17271 -0.660149,-7.7631 2e-6,-1e-5 4e-6,-1e-5 6e-6,-2e-5 0.378486,-2.50577 1.356794,-4.90055 2.697163,-7.05127 1.481334,-2.3769 3.3798,-4.47454 5.455002,-6.35538 2.34832,-2.12838 4.930435,-3.98823 7.613349,-5.67541 6.064345,-3.81363 12.626135,-6.78054 19.303797,-9.37455 6.789646,-2.63751 13.734864,-4.86154 20.743364,-6.84564 5.75633,-1.62962 11.56036,-3.08728 17.38704,-4.4441 0,0 1e-5,0 1e-5,0 1.97719,-0.46041 3.9575,-0.90729 5.93617,-1.36125 1e-5,-10e-6 1e-5,-10e-6 2e-5,-10e-6 0.67288,-0.15438 1.34565,-0.30932 2.01647,-0.47239 l 0,0 1e-5,-10e-6 0,0 c 0.42938,-0.10438 0.85914,-0.20846 1.28215,-0.33622 l 0,0 c 1e-5,0 1e-5,0 2e-5,0 0.11554,-0.0349 0.23115,-0.0705 0.34226,-0.11767 0,0 2e-5,0 2e-5,0 0,0 1e-5,-1e-5 1e-5,-1e-5 0.0317,-0.0135 0.0634,-0.0277 0.0923,-0.0463 l 0,0 1e-5,-10e-6 c 0.0154,-0.01 0.0327,-0.0206 0.0382,-0.038 0,0 0,-2e-5 0,-2e-5 0.004,-0.0119 -0.006,-0.0236 -0.017,-0.0298 -0.0223,-0.0127 -0.0482,-0.0172 -0.0734,-0.0215 -0.1057,-0.0181 -0.21362,-0.018 -0.32085,-0.0185 -0.45732,-0.002 -0.91409,0.03 -1.37041,0.0603 -0.80219,0.0534 -1.60343,0.12004 -2.40447,0.18855 z" style="opacity:1;fill:#8d9eb8;fill-opacity:1;fill-rule:evenodd;stroke:none;stroke-width:1px;stroke-linecap:butt;stroke-linejoin:miter;stroke-opacity:1" />
                <path id="path4964" d="m 52.070542,475.67873 a 41.242727,12.485174 6.5767672 0 0 -27.14063,8.65234 41.242727,12.485174 6.5767672 0 0 39.90039,17.06055 41.242727,12.485174 6.5767672 0 0 42.064458,-7.82422 41.242727,12.485174 6.5767672 0 0 -39.900388,-17.06055 41.242727,12.485174 6.5767672 0 0 -14.92383,-0.82812 z m 4.18164,0.84765 a 33.112926,10.024085 8.2087703 0 1 14.99805,1.02344 33.112926,10.024085 8.2087703 0 1 31.630858,14.60352 33.112926,10.024085 8.2087703 0 1 -33.937498,5.31836 33.112926,10.024085 8.2087703 0 1 -31.63282,-14.60547 33.112926,10.024085 8.2087703 0 1 18.94141,-6.33985 z" style="color:#000000;clip-rule:nonzero;display:inline;overflow:visible;visibility:visible;opacity:1;isolation:auto;mix-blend-mode:normal;color-interpolation:sRGB;color-interpolation-filters:linearRGB;solid-color:#000000;solid-opacity:1;fill:#054d87;fill-opacity:1;fill-rule:evenodd;stroke:none;stroke-width:2;stroke-linecap:butt;stroke-linejoin:miter;stroke-miterlimit:4;stroke-dasharray:none;stroke-dashoffset:0;stroke-opacity:1;color-rendering:auto;image-rendering:auto;shape-rendering:auto;text-rendering:auto;enable-background:accumulate" inkscape:connector-curvature="0" />
                <path style="opacity:1;fill:#8d9eb8;fill-opacity:1;fill-rule:evenodd;stroke:none;stroke-width:1px;stroke-linecap:butt;stroke-linejoin:miter;stroke-opacity:1" d="m 136.35742,470.89648 c -0.45732,-0.002 -0.91478,0.0302 -1.37109,0.0605 -0.80219,0.0534 -1.60326,0.12095 -2.4043,0.18945 -12.05647,1.03111 -24.1505,1.63928 -36.17578,2.98633 -8.925042,0.99977 -17.846007,2.36793 -26.542969,4.56836 l 20.587891,5.34375 0.0078,0.0156 c 6.303805,-2.38439 12.729538,-4.44136 19.214848,-6.27735 5.75634,-1.62962 11.56004,-3.08849 17.38672,-4.44531 1.97718,-0.46041 3.95882,-0.90736 5.9375,-1.36133 0.67287,-0.15437 1.3448,-0.30763 2.01562,-0.4707 0.42938,-0.10438 0.85824,-0.21013 1.28125,-0.33789 0.11554,-0.0349 0.23265,-0.0701 0.34375,-0.11719 0.0317,-0.0135 0.0628,-0.0282 0.0918,-0.0469 0.0154,-0.01 0.0335,-0.0197 0.0391,-0.0371 0.004,-0.0119 -0.007,-0.0231 -0.0176,-0.0293 -0.0223,-0.0127 -0.049,-0.0172 -0.0742,-0.0215 -0.10569,-0.0181 -0.21308,-0.019 -0.32031,-0.0195 z" id="path4968" inkscape:connector-curvature="0" />
            </g>
        </g>
        <g transform="translate(-1442.5701,4062.9424)" style="font-style:normal;font-weight:normal;font-size:46.02591705px;line-height:163.99999857%;font-family:Sans;letter-spacing:0px;word-spacing:0px;fill:#4d4d4d;fill-opacity:1;stroke:none;stroke-width:1px;stroke-linecap:butt;stroke-linejoin:miter;stroke-opacity:1" id="flowRoot4988">
            <path d="m 242.15002,-3914.7395 q 0,1.1967 -0.27615,2.3013 -0.27616,1.1046 -1.10463,2.3473 -0.78244,1.2427 -2.11719,2.1633 -1.33475,0.8744 -3.63605,1.4728 -2.30129,0.5983 -5.339,0.5983 -1.38078,0 -3.17579,-0.1381 l 0,8.3768 q 0,2.5314 0.78244,3.3138 0.82847,0.7364 3.544,0.8285 l 0,0.8745 -12.88726,0 0,-0.8745 q 2.62348,-0.2301 3.22181,-0.9665 0.64437,-0.7825 0.64437,-3.6821 l 0,-19.9292 q 0,-2.4854 -0.64437,-3.1758 -0.64436,-0.6904 -3.22181,-0.9666 l 0,-0.8745 12.15084,0 q 2.07117,0 4.00426,0.4143 1.93308,0.3682 3.82015,1.2427 1.93309,0.8745 3.08373,2.5774 1.15065,1.703 1.15065,4.0963 z m -15.64881,-5.0628 0,11.9667 q 1.61091,0.1381 2.62348,0.1381 8.00851,0 8.00851,-6.7658 0,-3.544 -2.20925,-5.201 -2.20924,-1.7029 -6.85786,-1.7029 -0.92052,0 -1.2427,0.3222 -0.32218,0.3222 -0.32218,1.2427 z" style="font-style:normal;font-variant:normal;font-weight:normal;font-stretch:normal;font-family:FreeSerif;-inkscape-font-specification:FreeSerif;fill:#4d4d4d" id="path5041" />
            <path d="m 274.92838,-3918.9739 -11.78263,26.3729 -0.64436,0 -11.55251,-25.3143 0,18.5485 q 0,3.4979 0.82847,4.6486 0.82846,1.1046 3.49797,1.2427 l 0,0.8745 -10.81609,0 0,-0.8745 q 2.8536,-0.1841 3.63605,-1.2427 0.82846,-1.1046 0.82846,-4.6486 l 0,-18.6865 q 0,-2.5315 -0.78244,-3.2219 -0.73641,-0.7364 -3.59002,-0.9205 l 0,-0.8745 9.11313,0 10.63199,23.2431 10.17173,-23.2431 9.15915,0 0,0.8745 q -2.57745,0.2302 -3.31386,0.9666 -0.69039,0.7364 -0.69039,3.1758 l 0,20.4355 q 0,2.4393 0.73641,3.2218 0.73642,0.7364 3.26784,0.9205 l 0,0.8745 -12.88725,0 0,-0.8745 q 2.71553,-0.1841 3.45194,-0.9665 0.73641,-0.8285 0.73641,-3.6821 l 0,-20.8498 z" style="font-style:normal;font-variant:normal;font-weight:normal;font-stretch:normal;font-family:FreeSerif;-inkscape-font-specification:FreeSerif;fill:#4d4d4d" id="path5043" />
            <path d="m 301.709,-3898.8145 q 0,-2.1632 -1.51886,-3.8202 -1.51885,-1.7029 -3.68207,-2.8996 -2.16322,-1.1967 -4.32644,-2.4394 -2.11719,-1.2887 -3.63604,-3.2678 -1.51886,-1.9791 -1.51886,-4.6026 0,-3.498 2.34732,-5.6612 2.39335,-2.2092 5.61517,-2.2092 1.93308,0 4.18835,0.7824 2.25527,0.7824 2.71553,0.7824 1.19668,0 1.47283,-1.5648 l 0.96655,0 1.01257,9.8035 -1.15065,0 q -1.10462,-4.0503 -3.40592,-5.9834 -2.25527,-1.9331 -5.01682,-1.9331 -2.1172,0 -3.45195,1.1967 -1.33475,1.1967 -1.33475,3.0837 0,1.8411 1.56488,3.498 1.56488,1.6569 5.20093,3.6821 4.55657,2.4394 6.58171,4.8327 2.02514,2.3473 2.02514,5.2009 0,3.544 -2.71553,5.9834 -2.71553,2.3933 -6.67376,2.3933 -2.3013,0 -4.69464,-0.7824 -2.34733,-0.7824 -2.89964,-0.7824 -0.50628,0 -0.87449,0.4602 -0.36821,0.4143 -0.41423,1.0586 l -1.01257,0 -1.38078,-9.7575 1.0586,0 q 1.70296,4.1884 3.95823,6.1675 2.25527,1.9791 5.339,1.9791 2.53143,0 4.09631,-1.4268 1.56488,-1.4728 1.56488,-3.7741 z" style="font-style:normal;font-variant:normal;font-weight:normal;font-stretch:normal;font-family:FreeSerif;-inkscape-font-specification:FreeSerif;fill:#4d4d4d" id="path5045" />
        </g>
    </g>
</svg>
