<?xml version="1.0" encoding="UTF-8" standalone="no"?>
<svg xmlns:dc="http://purl.org/dc/elements/1.1/" xmlns:cc="http://creativecommons.org/ns#" xmlns:rdf="http://www.w3.org/1999/02/22-rdf-syntax-ns#" xmlns:svg="http://www.w3.org/2000/svg" xmlns="http://www.w3.org/2000/svg" xmlns:sodipodi="http://sodipodi.sourceforge.net/DTD/sodipodi-0.dtd" xmlns:inkscape="http://www.inkscape.org/namespaces/inkscape" version="1.1" x="0px" y="0px" viewBox="0 0 60 50.610168" enable-background="new 0 0 64 64" xml:space="preserve" id="svg2" inkscape:version="0.91 r13725" sodipodi:docname="noun_1033609_cc.svg" width="60" height="50.610168"><metadata id="metadata32"><rdf:RDF><cc:Work rdf:about=""><dc:format>image/svg+xml</dc:format><dc:type rdf:resource="http://purl.org/dc/dcmitype/StillImage" /><dc:title></dc:title></cc:Work></rdf:RDF></metadata><defs id="defs30" /><sodipodi:namedview pagecolor="#ffffff" bordercolor="#666666" borderopacity="1" objecttolerance="10" gridtolerance="10" guidetolerance="10" inkscape:pageopacity="0" inkscape:pageshadow="2" inkscape:window-width="1920" inkscape:window-height="1017" id="namedview28" showgrid="false" fit-margin-top="0" fit-margin-left="0" fit-margin-right="0" fit-margin-bottom="0" inkscape:zoom="5.9" inkscape:cx="36.372423" inkscape:cy="8.0465551" inkscape:window-x="0" inkscape:window-y="30" inkscape:window-maximized="1" inkscape:current-layer="svg2" /><g id="g4" transform="matrix(0.97686208,0,0,0.93722536,-1.2590216,-4.6861268)" style="fill:#054d87;fill-opacity:1"><g id="g6" style="fill:#054d87;fill-opacity:1"><path d="m 19.871,48.141 -1.262,-8.691 -0.003,-0.205 0.952,-1.07 0.042,-0.254 c 0.108,-0.649 -0.393,-1.24 -1.051,-1.239 l -1.865,10e-4 c -0.658,0 -1.158,0.592 -1.049,1.24 l 0.042,0.252 1.067,1.1 -1.396,8.778 -2.533,-11.728 -0.121,-0.455 -0.332,0.197 C 11.121,36.804 9.766,37.33 8.351,37.619 5.58,38.186 3.012,38.858 2.1,41.946 1.478,44.057 1.425,52.54 1.29,55.962 c -0.029,0.743 0.49,1.395 1.222,1.533 2.124,0.401 6.162,1.154 11.402,1.414 l 10e-4,10e-4 c 0.061,0.003 0.124,0.005 0.185,0.008 0.287,0.014 0.575,0.026 0.863,0.036 0.106,0.004 0.211,0.007 0.317,0.011 0.237,0.008 0.474,0.013 0.712,0.018 l 0,0 c -0.05,-10e-4 -0.1,-0.003 -0.149,-0.004 l 0,10e-4 c 0.05,0.002 0.099,0.002 0.149,0.003 l 0,0.001 c 0.034,10e-4 0.067,10e-4 0.101,0.002 0.046,0.001 0.091,0.003 0.137,0.004 0.035,10e-4 0.07,0.002 0.105,0.003 l 0,-0.001 c 0.05,0.001 0.101,0.001 0.151,0.001 0.314,0.003 0.627,0.007 0.941,0.007 0.24,0 0.481,-0.003 0.722,-0.005 C 17.908,58.998 17.667,59 17.427,59 c 6.508,0 12.58,-1.034 15.3,-1.518 0.739,-0.132 1.268,-0.786 1.238,-1.536 C 33.831,52.519 33.776,44.054 33.154,41.947 32.237,38.843 29.632,38.18 26.855,37.611 25.407,37.314 24.022,36.772 22.757,36.007 l -0.306,-0.185 -2.58,12.319 z m -0.47,10.828 c -0.051,10e-4 -0.102,0.002 -0.152,0.003 l 0,-0.001 c 0.051,-0.002 0.102,-0.003 0.153,-0.004 -0.001,0.001 -0.001,0.002 -0.001,0.002 z m -3.066,0.02 0,0 c 0.005,0 0.01,0 0.015,0 -0.005,0 -0.01,0 -0.015,0 z" id="path8" inkscape:connector-curvature="0" style="fill:#054d87;fill-opacity:1" /><path d="m 25.003,20.845 c 0.004,-0.031 -0.001,-0.059 -0.007,-0.087 -0.108,-0.52 -0.236,-1.034 -0.467,-1.517 -0.048,-0.1 -0.091,-0.203 -0.129,-0.308 -0.133,-0.359 -0.262,-0.718 -0.393,-1.077 -0.01,-0.028 -0.021,-0.056 -0.031,-0.084 0.011,-0.006 0.023,-0.012 0.034,-0.019 0.191,0.302 0.383,0.604 0.574,0.907 -0.029,-0.102 -0.065,-0.202 -0.106,-0.301 -0.173,-0.421 -0.398,-0.809 -0.735,-1.124 -0.07,-0.065 -0.135,-0.14 -0.189,-0.219 -0.351,-0.522 -0.774,-0.962 -1.359,-1.221 -0.257,-0.114 -0.517,-0.222 -0.776,-0.333 -0.065,-0.028 -0.13,-0.056 -0.194,-0.084 0.879,0.07 1.696,0.343 2.485,0.717 -0.026,-0.027 -0.055,-0.047 -0.085,-0.067 -0.806,-0.544 -1.706,-0.817 -2.663,-0.929 -0.357,-0.042 -0.72,-0.039 -1.063,-0.177 -0.12,-0.048 -0.249,-0.074 -0.375,-0.107 -0.18,-0.047 -0.36,-0.09 -0.541,-0.135 0.001,-0.01 0.002,-0.021 0.002,-0.031 0.552,0 1.103,0 1.655,0 -0.013,-0.032 -0.028,-0.042 -0.044,-0.044 -0.72,-0.104 -1.442,-0.181 -2.17,-0.116 -0.249,0.022 -0.495,0.034 -0.743,0 -0.11,-0.015 -0.221,-0.019 -0.331,-0.029 -0.001,-0.011 -0.001,-0.021 -0.002,-0.032 0.54,-0.101 1.08,-0.201 1.651,-0.308 -0.573,0.014 -1.113,0.051 -1.647,0.146 -0.298,0.053 -0.59,0.148 -0.889,0.187 -0.428,0.056 -0.861,0.078 -1.294,0.114 0.856,-0.407 1.772,-0.585 2.705,-0.688 -0.175,0.005 -0.351,-0.003 -0.525,0.007 -0.647,0.034 -1.288,0.11 -1.914,0.281 -0.519,0.142 -1.012,0.34 -1.436,0.684 -0.08,0.065 -0.178,0.11 -0.267,0.164 -0.009,-0.014 -0.018,-0.027 -0.027,-0.041 0.195,-0.141 0.383,-0.294 0.586,-0.421 0.207,-0.13 0.426,-0.244 0.648,-0.348 0.214,-0.101 0.437,-0.181 0.657,-0.27 -0.435,0.111 -0.854,0.263 -1.256,0.461 -0.799,0.392 -1.4,1.046 -2.09,1.582 -0.003,0.002 -0.006,0.005 -0.008,0.008 -0.044,0.072 -0.092,0.142 -0.132,0.217 -0.058,0.111 -0.103,0.231 -0.169,0.337 -0.03,0.048 -0.095,0.081 -0.151,0.105 -0.113,0.047 -0.235,0.073 -0.346,0.123 -0.595,0.267 -0.946,0.733 -1.095,1.361 0.143,-0.285 0.323,-0.541 0.587,-0.773 -0.071,0.246 -0.131,0.464 -0.2,0.679 -0.028,0.087 -0.067,0.174 -0.117,0.251 -0.14,0.215 -0.248,0.443 -0.33,0.714 0.113,-0.192 0.21,-0.358 0.308,-0.524 0.008,0.004 0.016,0.008 0.024,0.012 -0.01,0.045 -0.02,0.091 -0.03,0.136 -0.242,1.053 -0.381,2.118 -0.333,3.201 0.021,0.468 0.081,0.924 0.226,1.364 -0.02,0.317 -0.031,0.641 -0.031,0.974 l 0,0.013 c 0.043,2.161 1.027,4.895 2.569,7.134 1.213,1.761 2.788,2.75 4.435,2.784 0.03,10e-4 0.059,10e-4 0.089,10e-4 1.628,0 3.222,-0.929 4.497,-2.625 1.526,-2.03 2.408,-4.395 2.697,-7.232 0.029,-0.284 0.046,-0.564 0.053,-0.841 0.144,-0.733 0.112,-1.472 0.035,-2.209 -0.046,-0.441 -0.12,-0.878 -0.184,-1.341 0.07,0.182 0.137,0.343 0.196,0.507 0.058,0.163 0.108,0.328 0.161,0.491 z m -1.506,3.266 c -0.266,2.603 -1.068,4.764 -2.453,6.607 -1.049,1.396 -2.312,2.148 -3.559,2.125 -1.252,-0.026 -2.438,-0.801 -3.43,-2.242 -1.24,-1.801 -1.91,-3.623 -2.19,-5.063 0.038,-0.413 0.054,-0.828 0.063,-1.243 10e-4,-0.05 -0.003,-0.103 0.011,-0.15 0.043,-0.148 0.1,-0.292 0.139,-0.441 0.125,-0.478 0.24,-0.959 0.37,-1.436 0.035,-0.13 0.099,-0.256 0.168,-0.374 0.133,-0.228 0.287,-0.227 0.439,-0.009 0.025,0.036 0.049,0.072 0.081,0.118 0.047,-0.447 0.111,-0.601 0.329,-0.83 0.215,-0.226 0.486,-0.352 0.781,-0.387 1.714,0.762 4.316,1.359 7.073,-0.053 0.183,0.004 0.365,0.018 0.546,0.073 0.303,0.092 0.528,0.27 0.659,0.549 0.084,0.179 0.123,0.38 0.18,0.565 0.038,-0.045 0.085,-0.109 0.14,-0.164 0.129,-0.128 0.233,-0.109 0.308,0.058 0.031,0.069 0.059,0.142 0.07,0.216 0.054,0.357 0.097,0.715 0.152,1.072 0.042,0.272 0.092,0.544 0.141,0.815 -0.006,0.064 -0.011,0.129 -0.018,0.194 z" id="path10" inkscape:connector-curvature="0" style="fill:#054d87;fill-opacity:1" /></g><g id="g12" style="fill:#054d87;fill-opacity:1"><path d="M 58.798,5 33.736,5 c -2.158,0 -3.913,1.755 -3.913,3.913 l 0,11.057 c 0,2.158 1.755,3.913 3.913,3.913 l 0.453,0 0,3.666 c 0,1.573 0.934,2.986 2.379,3.598 0.488,0.209 1.004,0.315 1.534,0.315 1.014,0 1.977,-0.388 2.712,-1.094 l 6.741,-6.485 11.242,0 c 2.158,0 3.913,-1.755 3.913,-3.913 l 0,-11.057 C 62.711,6.755 60.956,5 58.798,5 Z M 33.736,21.594 c -0.896,0 -1.624,-0.729 -1.624,-1.624 l 0,-11.057 c 0,-0.896 0.729,-1.624 1.624,-1.624 l 25.062,0 c 0.896,0 1.624,0.729 1.624,1.624 l 0,11.057 c 0,0.896 -0.729,1.624 -1.624,1.624 l -12.163,0 -7.405,7.125 c -0.306,0.293 -0.706,0.454 -1.127,0.454 -0.216,0 -0.436,-0.045 -0.635,-0.13 -0.601,-0.255 -0.989,-0.841 -0.989,-1.494 l 0,-5.955 -2.743,0 z" id="path14" inkscape:connector-curvature="0" style="fill:#054d87;fill-opacity:1" /><g id="g16" style="fill:#054d87;fill-opacity:1"><circle cx="38.285" cy="14.392" r="2.987" id="circle18" style="fill:#054d87;fill-opacity:1" /><circle cx="46.266998" cy="14.392" r="2.987" id="circle20" style="fill:#054d87;fill-opacity:1" /><circle cx="54.249001" cy="14.392" r="2.987" id="circle22" style="fill:#054d87;fill-opacity:1" /></g></g></g></svg>