<svg xmlns="http://www.w3.org/2000/svg" width="251.89" height="103.437" viewBox="0 0 236.1465 96.972309"><g fill-rule="evenodd"><path d="M154.273.357c-17.276 1.478-34.605 2.35-51.836 4.28-18.068 2.025-36.138 5.05-53.283 11.099-5.095 1.797-9.913 4.298-14.64 6.913-5.25 2.905-10.369 6.042-15.416 9.287L1.932 43.599c6.698-2.884 13.23-6.148 19.98-8.908 6.297-2.575 12.852-4.788 19.643-5.205-.118-.032-.23.067-.332.136-.21.143-.398.314-.584.487-.631.591-1.206 1.24-1.768 1.898-1.763 2.06-3.36 4.26-4.836 6.535-1.726 2.662-3.288 5.442-4.468 8.386-1.03 2.567-1.85 5.316-1.582 8.07.504 5.153 3.142 9.86 6.078 14.127 3.387 4.923 7.418 9.375 11.663 13.58l16.455 14.267c-4.806-3.964-9.353-8.288-13.144-13.231-2.824-3.682-5.232-7.738-6.616-12.167-1.12-3.583-1.506-7.412-.946-11.123.543-3.59 1.944-7.022 3.865-10.104 2.122-3.406 4.843-6.411 7.816-9.106 3.365-3.05 7.065-5.715 10.91-8.132 8.689-5.465 18.09-9.716 27.659-13.433 9.729-3.78 19.68-6.966 29.723-9.809 8.248-2.335 16.564-4.424 24.913-6.368 2.833-.66 5.67-1.3 8.506-1.95.964-.221 1.928-.443 2.89-.677.614-.15 1.23-.299 1.836-.482a4.8 4.8 0 0 0 .49-.168.871.871 0 0 0 .133-.067c.022-.014.047-.03.055-.054.005-.017-.009-.034-.025-.043a.317.317 0 0 0-.105-.03C159.99 0 159.835 0 159.681 0c-.655-.003-1.31.043-1.963.086-1.15.077-2.298.172-3.445.27z" fill="#8d9eb8"/><path d="M38.91 6.852A59.095 17.89 6.577 0 0 .02 19.25a59.095 17.89 6.577 0 0 57.173 24.446 59.095 17.89 6.577 0 0 60.272-11.211A59.095 17.89 6.577 0 0 60.293 8.039 59.095 17.89 6.577 0 0 38.91 6.852zm5.99 1.215a47.447 14.363 8.209 0 1 21.49 1.466 47.447 14.363 8.209 0 1 45.323 20.925 47.447 14.363 8.209 0 1-48.628 7.621A47.447 14.363 8.209 0 1 17.76 17.151 47.447 14.363 8.209 0 1 44.9 8.067z" style="isolation:auto;mix-blend-mode:normal" color="#000" overflow="visible" fill="#054d87"/><path d="M159.682 0c-.656-.003-1.311.043-1.965.087-1.15.076-2.297.173-3.445.271-17.275 1.478-34.605 2.35-51.835 4.28C89.648 6.07 76.866 8.03 64.404 11.182l29.5 7.657.011.022c9.033-3.416 18.24-6.363 27.532-8.994 8.249-2.335 16.564-4.426 24.913-6.37 2.833-.66 5.673-1.3 8.508-1.95.964-.222 1.927-.441 2.888-.675.615-.15 1.23-.3 1.836-.484.166-.05.333-.1.493-.168.045-.02.09-.04.131-.067.022-.014.048-.028.056-.053.006-.017-.01-.033-.025-.042a.324.324 0 0 0-.106-.031 2.79 2.79 0 0 0-.46-.028z" fill="#8d9eb8"/></g><g style="line-height:163.99999857%"><path d="M171.939 32.898q0 1.197-.276 2.302-.276 1.104-1.105 2.347-.782 1.243-2.117 2.163-1.335.875-3.636 1.473-2.301.598-5.34.598-1.38 0-3.175-.138v8.377q0 2.531.783 3.314.828.736 3.544.828v.875h-12.888v-.875q2.624-.23 3.222-.966.644-.783.644-3.682v-19.93q0-2.485-.644-3.175t-3.222-.967v-.874h12.151q2.071 0 4.004.414 1.933.368 3.82 1.243 1.934.874 3.084 2.577 1.15 1.703 1.15 4.096zm-15.649-5.063v11.967q1.611.138 2.624.138 8.008 0 8.008-6.766 0-3.544-2.21-5.2-2.208-1.703-6.857-1.703-.92 0-1.243.322-.322.322-.322 1.242zm48.427.829l-11.782 26.373h-.645l-11.552-25.315v18.549q0 3.498.828 4.649.829 1.104 3.498 1.242v.875h-10.816v-.875q2.854-.184 3.636-1.242.829-1.105.829-4.649V29.584q0-2.531-.783-3.221-.736-.737-3.59-.92v-.875h9.113l10.632 23.243 10.172-23.243h9.16v.874q-2.578.23-3.315.967-.69.736-.69 3.175V50.02q0 2.44.736 3.222.737.736 3.268.92v.875H200.53v-.875q2.715-.184 3.452-.966.736-.829.736-3.682v-20.85zm26.781 20.159q0-2.163-1.519-3.82-1.519-1.703-3.682-2.9-2.163-1.196-4.326-2.439-2.118-1.289-3.637-3.268-1.518-1.979-1.518-4.602 0-3.498 2.347-5.662 2.393-2.209 5.615-2.209 1.933 0 4.188.783 2.256.782 2.716.782 1.197 0 1.473-1.565h.966l1.013 9.804h-1.15q-1.105-4.05-3.407-5.984-2.255-1.933-5.016-1.933-2.118 0-3.452 1.197-1.335 1.197-1.335 3.084 0 1.84 1.565 3.498 1.565 1.657 5.2 3.682 4.557 2.44 6.582 4.832 2.026 2.348 2.026 5.201 0 3.544-2.716 5.984-2.716 2.393-6.674 2.393-2.301 0-4.694-.782-2.348-.783-2.9-.783-.506 0-.875.46-.368.415-.414 1.06h-1.012l-1.381-9.758h1.058q1.703 4.188 3.959 6.167 2.255 1.98 5.339 1.98 2.531 0 4.096-1.428 1.565-1.472 1.565-3.774z" style="-inkscape-font-specification:FreeSerif" font-weight="400" font-size="46.026" font-family="FreeSerif" letter-spacing="0" word-spacing="0" fill="#4d4d4d"/></g></svg>