<svg xmlns="http://www.w3.org/2000/svg" viewBox="0 0 60 50.610168" width="60" height="50.61"><g fill="#054d87"><path d="M18.152 40.433l-1.233-8.146-.003-.192.93-1.003.041-.238c.106-.608-.383-1.162-1.026-1.16h-1.822c-.643 0-1.131.555-1.025 1.162l.041.236 1.043 1.031-1.364 8.227-2.475-10.991-.118-.427-.324.185a12.945 12.945 0 0 1-3.918 1.454c-2.707.532-5.216 1.162-6.107 4.056-.607 1.978-.659 9.929-.79 13.136-.03.696.478 1.307 1.193 1.437 2.075.375 6.02 1.081 11.138 1.325h.001c.06.004.121.006.18.008.281.013.562.025.844.034l.31.01c.23.008.462.013.695.017-.049 0-.098-.003-.146-.004v.001l.146.003v.001l.099.002.133.004c.035 0 .069.002.103.003v-.001h.148c.306.003.612.007.919.007.234 0 .47-.003.705-.005-.235.003-.47.005-.705.005 6.357 0 12.289-.969 14.946-1.423.722-.123 1.238-.736 1.21-1.44-.132-3.211-.186-11.145-.793-13.12-.896-2.908-3.44-3.53-6.153-4.063a12.962 12.962 0 0 1-4.004-1.503l-.298-.174-2.52 11.546zm-.459 10.148l-.148.003v-.001l.15-.004-.002.002zm-2.995.019h.015-.015zm8.467-35.75a.226.226 0 0 0-.006-.081c-.106-.488-.23-.97-.457-1.422a3.056 3.056 0 0 1-.126-.289c-.13-.336-.256-.673-.383-1.009l-.03-.079c.01-.005.022-.011.032-.018l.561.85a2.516 2.516 0 0 0-.103-.282c-.17-.394-.39-.758-.718-1.053a1.25 1.25 0 0 1-.185-.205c-.343-.49-.756-.902-1.328-1.145-.25-.106-.505-.208-.758-.312a37.457 37.457 0 0 1-.19-.078c.86.065 1.658.321 2.428.672a.477.477 0 0 0-.083-.063c-.787-.51-1.666-.766-2.601-.871-.349-.04-.703-.037-1.038-.166-.118-.045-.244-.07-.367-.1-.176-.044-.351-.084-.528-.127a.29.29 0 0 0 .002-.029h1.616c-.012-.03-.027-.04-.043-.041-.703-.097-1.408-.17-2.12-.109a3.316 3.316 0 0 1-.725 0c-.108-.014-.216-.017-.324-.027l-.001-.03c.527-.094 1.055-.188 1.612-.289-.56.014-1.087.048-1.609.137-.29.05-.576.139-.868.176-.418.052-.841.073-1.264.106.836-.381 1.731-.548 2.642-.644-.17.004-.343-.003-.512.006a9.165 9.165 0 0 0-1.87.264c-.507.133-.989.318-1.403.64-.078.062-.174.104-.26.154l-.027-.038c.19-.132.374-.276.572-.395.202-.122.416-.228.633-.326.21-.095.427-.17.642-.253a6.454 6.454 0 0 0-1.227.432c-.78.368-1.367.98-2.042 1.483a.03.03 0 0 0-.007.007c-.043.068-.09.133-.13.204-.056.104-.1.216-.164.316-.03.045-.093.075-.148.098-.11.044-.23.068-.338.115-.581.25-.924.687-1.07 1.276a2.34 2.34 0 0 1 .574-.725c-.07.23-.128.435-.195.637a.978.978 0 0 1-.115.235 2.504 2.504 0 0 0-.322.67l.3-.492.024.011-.03.128c-.236.987-.371 1.985-.324 3 .02.438.079.866.22 1.278-.02.297-.03.601-.03.913v.012c.042 2.026 1.003 4.588 2.51 6.686 1.185 1.65 2.723 2.578 4.332 2.61h.087c1.59 0 3.147-.87 4.393-2.46 1.49-1.902 2.352-4.119 2.634-6.778a9.9 9.9 0 0 0 .052-.788c.14-.687.11-1.38.034-2.07-.044-.414-.117-.823-.18-1.257.07.17.135.321.192.475.057.153.106.308.157.46zm-1.47 3.061c-.26 2.44-1.044 4.465-2.397 6.193-1.025 1.308-2.258 2.013-3.477 1.991-1.223-.024-2.381-.75-3.35-2.101-1.212-1.688-1.866-3.396-2.14-4.745.038-.387.053-.776.062-1.165.001-.047-.003-.097.01-.14.043-.14.098-.274.137-.414.122-.448.234-.899.361-1.346a1.44 1.44 0 0 1 .164-.35c.13-.214.28-.213.429-.009l.079.11c.046-.418.108-.563.321-.777.21-.212.475-.33.763-.363 1.675.714 4.216 1.274 6.91-.05.178.004.356.017.533.069.296.086.516.253.644.514.082.168.12.356.176.53.037-.042.083-.102.136-.154.126-.12.228-.102.301.055.03.064.058.133.069.202.052.335.094.67.148 1.005.041.255.09.51.138.763-.006.06-.01.121-.018.182zM56.179 0H31.696c-2.108 0-3.822 1.645-3.822 3.667V14.03c0 2.023 1.714 3.668 3.822 3.668h.443v3.435c0 1.475.912 2.799 2.324 3.373.477.196.98.295 1.498.295a3.9 3.9 0 0 0 2.65-1.025l6.585-6.078h10.982c2.108 0 3.822-1.645 3.822-3.668V3.667C60.001 1.645 58.287 0 56.179 0zM31.696 15.552c-.875 0-1.586-.683-1.586-1.522V3.667c0-.84.712-1.522 1.586-1.522H56.18c.875 0 1.586.684 1.586 1.522V14.03c0 .84-.712 1.522-1.586 1.522H44.297l-7.234 6.678a1.62 1.62 0 0 1-1.1.426c-.212 0-.427-.043-.621-.122a1.518 1.518 0 0 1-.966-1.4v-5.582h-2.68z"/><g transform="matrix(.97686 0 0 .93723 -1.259 -4.686)"><circle cx="38.285" cy="14.392" r="2.987"/><circle cx="46.267" cy="14.392" r="2.987"/><circle cx="54.249" cy="14.392" r="2.987"/></g></g></svg>